<?xml version="1.0" encoding="UTF-8" standalone="no"?>
<svg
   xmlns:dc="http://purl.org/dc/elements/1.1/"
   xmlns:cc="http://creativecommons.org/ns#"
   xmlns:rdf="http://www.w3.org/1999/02/22-rdf-syntax-ns#"
   xmlns:svg="http://www.w3.org/2000/svg"
   xmlns="http://www.w3.org/2000/svg"
   xmlns:sodipodi="http://sodipodi.sourceforge.net/DTD/sodipodi-0.dtd"
   xmlns:inkscape="http://www.inkscape.org/namespaces/inkscape"
   sodipodi:docname="search.svg"
   inkscape:version="1.0 (4035a4fb49, 2020-05-01)"
   id="svg8"
   version="1.1"
   viewBox="0 0 10.462411 10.941968"
   height="10.941968mm"
   width="10.462411mm">
  <defs
     id="defs2" />
  <sodipodi:namedview
     inkscape:window-maximized="1"
     inkscape:window-y="-11"
     inkscape:window-x="-11"
     inkscape:window-height="974"
     inkscape:window-width="1920"
     showgrid="false"
     inkscape:document-rotation="0"
     inkscape:current-layer="layer1"
     inkscape:document-units="mm"
     inkscape:cy="16.144212"
     inkscape:cx="26.697237"
     inkscape:zoom="11.2"
     inkscape:pageshadow="2"
     inkscape:pageopacity="0.0"
     borderopacity="1.0"
     bordercolor="#666666"
     pagecolor="#ffffff"
     id="base" />
  <metadata
     id="metadata5">
    <rdf:RDF>
      <cc:Work
         rdf:about="">
        <dc:format>image/svg+xml</dc:format>
        <dc:type
           rdf:resource="http://purl.org/dc/dcmitype/StillImage" />
        <dc:title></dc:title>
      </cc:Work>
    </rdf:RDF>
  </metadata>
  <g
     transform="translate(-110.4899,-66.665696)"
     id="layer1"
     inkscape:groupmode="layer"
     inkscape:label="Layer 1">
    <path
       transform="scale(0.26458333)"
       d="m 441.91992,251.96484 a 15.223214,15.223214 0 0 0 -15.22265,15.22266 15.223214,15.223214 0 0 0 2.8457,8.85938 l -11.94336,11.94335 5.32812,5.33008 12.40821,-12.4082 a 15.223214,15.223214 0 0 0 6.58398,1.49805 15.223214,15.223214 0 0 0 15.22266,-15.22266 15.223214,15.223214 0 0 0 -15.22266,-15.22266 z m 0,5.625 a 9.5982137,9.5982137 0 0 1 9.59766,9.59766 9.5982137,9.5982137 0 0 1 -9.59766,9.59766 9.5982137,9.5982137 0 0 1 -9.59765,-9.59766 9.5982137,9.5982137 0 0 1 9.59765,-9.59766 z"
       style="fill:#ffffff;stroke:none;stroke-width:22.2979;stroke-linecap:round"
       id="path835" />
  </g>
</svg>
