<?xml version="1.0" encoding="UTF-8" standalone="no"?>
<svg
   xmlns:dc="http://purl.org/dc/elements/1.1/"
   xmlns:cc="http://creativecommons.org/ns#"
   xmlns:rdf="http://www.w3.org/1999/02/22-rdf-syntax-ns#"
   xmlns:svg="http://www.w3.org/2000/svg"
   xmlns="http://www.w3.org/2000/svg"
   xmlns:sodipodi="http://sodipodi.sourceforge.net/DTD/sodipodi-0.dtd"
   xmlns:inkscape="http://www.inkscape.org/namespaces/inkscape"
   width="137.6595mm"
   height="137.6595mm"
   viewBox="0 0 137.6595 137.6595"
   version="1.1"
   id="svg879"
   inkscape:version="1.0 (4035a4fb49, 2020-05-01)"
   sodipodi:docname="shop_icon_circle.svg">
  <defs
     id="defs873">
    <inkscape:path-effect
       lpeversion="0"
       only_selected="false"
       apply_with_weight="true"
       apply_no_weight="true"
       helper_size="0"
       steps="2"
       weight="33.333333"
       is_visible="true"
       id="path-effect7699"
       effect="bspline" />
  </defs>
  <sodipodi:namedview
     id="base"
     pagecolor="#ffffff"
     bordercolor="#666666"
     borderopacity="1.0"
     inkscape:pageopacity="0.0"
     inkscape:pageshadow="2"
     inkscape:zoom="0.49497475"
     inkscape:cx="-54.127274"
     inkscape:cy="331.55513"
     inkscape:document-units="mm"
     inkscape:current-layer="layer1"
     inkscape:document-rotation="0"
     showgrid="false"
     inkscape:window-width="1366"
     inkscape:window-height="705"
     inkscape:window-x="-8"
     inkscape:window-y="-8"
     inkscape:window-maximized="1" />
  <metadata
     id="metadata876">
    <rdf:RDF>
      <cc:Work
         rdf:about="">
        <dc:format>image/svg+xml</dc:format>
        <dc:type
           rdf:resource="http://purl.org/dc/dcmitype/StillImage" />
        <dc:title />
      </cc:Work>
    </rdf:RDF>
  </metadata>
  <g
     inkscape:label="Layer 1"
     inkscape:groupmode="layer"
     id="layer1"
     transform="translate(101.71368,-111.46488)">
    <circle
       style="fill:#ffffff;fill-opacity:1;stroke-width:4.15081;stroke-linecap:round;stroke-linejoin:round;paint-order:stroke markers fill"
       id="path835"
       cx="-32.88393"
       cy="180.29463"
       r="68.82975" />
    <path
       style="opacity:1;vector-effect:none;fill:#000000;fill-opacity:1;stroke:none;stroke-width:1.41683;stroke-linecap:round;stroke-linejoin:miter;stroke-miterlimit:4;stroke-dasharray:none;stroke-dashoffset:0;stroke-opacity:1"
       d="m -33.931804,137.47981 c -0.938797,0.0552 -1.876611,0.11038 -3.272115,-0.0554 -1.395503,-0.16577 -3.244248,-0.55208 -5.094234,-0.93864 -0.676489,0.62126 -1.351996,1.24163 -2.59951,2.04424 -1.247514,0.80262 -3.060956,1.78346 -5.414679,2.87053 -2.353722,1.08706 -5.241562,2.27731 -7.92669,3.07804 -2.685127,0.80073 -5.163762,1.21058 -7.046269,2.34436 -1.882508,1.13378 -3.135597,2.94594 -4.336972,7.75123 -1.201375,4.80529 -2.333283,12.57252 -3.465699,20.34324 2.752946,0.76145 5.506521,1.52308 8.142194,1.88419 2.635673,0.36112 5.153946,0.32208 7.672598,0.28303 0,0 0.117137,-4.68585 0.117137,-4.68585 0.312391,2.67484 0.624687,5.34888 1.112864,8.04373 0.488177,2.69486 1.151804,5.40793 1.522816,7.11633 0.371012,1.7084 0.449095,2.4111 0.158089,4.45852 -0.291007,2.04742 -0.945845,5.41097 -1.466555,10.74449 -0.52071,5.33352 -0.910255,12.73485 -1.29682,20.07957 2.264163,0.77313 4.52888,1.54646 11.154555,1.76728 6.625675,0.22083 17.617822,-0.1106 24.182987,-0.34282 6.565166,-0.23222 8.706374,-0.3653 9.973693,-0.70428 1.267319,-0.33897 1.692744,-0.92646 2.1027576,-1.49267 -0.1212079,-11.7536 -0.2424254,-23.50813 -0.4273066,-30.66872 -0.184882,-7.16059 -0.433406,-9.72869 -0.475777,-11.82213 -0.04237,-2.09345 0.123358,-3.73356 0.288063,-5.36354 0,0 1.376474,3.19226 1.376474,3.19226 1.6130211,-0.17963 3.2270664,-0.35937 5.9376219,-1.15299 2.71055562,-0.79362 6.5222758,-2.20229 10.332693,-3.61049 -1.5186454,-6.65442 -3.0374492,-13.30954 -4.2661392,-17.5891 -1.22869,-4.27956 -2.16758574,-6.18496 -4.0583227,-7.60659 -1.8907369,-1.42163 -4.7353218,-2.36062 -8.28389,-3.67234 -3.548568,-1.31173 -7.799919,-2.9957 -10.384786,-4.39372 -2.584867,-1.39802 -3.501603,-2.50919 -4.174232,-3.04532 -0.672628,-0.53613 -1.102213,-0.49708 -2.080184,-0.27217 -0.97797,0.22491 -2.497275,0.63396 -3.923104,0.90102 -1.425829,0.26706 -2.753568,0.39088 -4.081258,0.5147 z"
       id="path7610"
       inkscape:connector-curvature="0"
       inkscape:path-effect="#path-effect7699"
       inkscape:original-d="m -33.931804,137.47981 c 0,0 -1.876662,0.10952 -2.81639,0.16566 -1.851001,-0.38791 -5.549959,-1.15969 -5.549959,-1.15969 0,0 -1.352038,1.24158 -2.029467,1.86379 -1.817741,0.98273 -3.631179,1.96358 -5.44818,2.94678 -2.890457,1.19079 -5.778296,2.38105 -8.668849,3.57297 -2.479637,0.40923 -4.958271,0.81909 -7.438808,1.23004 -1.288226,1.85469 -2.537235,3.66967 -3.807266,5.50589 -1.132141,7.77433 -3.397249,23.31217 -3.397249,23.31217 0,0 5.506828,1.52197 8.258837,2.28436 2.519015,-0.04 7.555955,-0.11714 7.555955,-0.11714 0,0 0.117137,-4.68585 0.117137,-4.68585 0,0 0.625721,5.34876 0.937172,8.02453 0.664969,2.71379 1.328602,5.42686 1.991489,8.1417 0.07909,0.70211 0.157126,1.40482 0.234309,2.10864 -0.712747,3.3809 -1.314317,6.75482 -1.972881,10.13362 -0.33051,7.29089 -1.159695,22.03415 -1.159695,22.03415 0,0 4.529264,1.54533 6.79249,2.3194 10.987712,-0.33222 21.97986,-0.66362 32.968389,-0.99403 2.141775,-0.13399 4.282982,-0.2671 6.423073,-0.39923 0.391243,-0.54736 1.2300406,-1.69863 1.2300406,-1.69863 0,0 -0.2414633,-23.50814 -0.3636236,-35.26079 -0.247556,-2.56862 -0.496075,-5.13672 -0.745511,-7.70366 0.155814,-1.62064 0.494114,-4.88994 0.494114,-4.88994 0,0 1.376474,3.19226 1.376474,3.19226 0,0 3.2269755,-0.36019 4.8390633,-0.53889 3.80892394,-1.40823 11.4312516,-4.22459 11.4312516,-4.22459 0,0 -3.0363586,-13.30979 -4.5559361,-19.96327 -0.9377643,-1.90595 -1.87665868,-3.81135 -2.81640256,-5.71562 -2.84248884,-0.93955 -5.68707514,-1.87854 -8.53201764,-2.81641 -4.2521146,-1.68559 -8.5034676,-3.36956 -12.7566136,-5.05294 -0.916018,-1.11237 -1.832763,-2.22353 -2.750544,-3.33391 -0.428561,0.0381 -0.858142,0.0772 -1.288613,0.11714 -1.525568,0.41005 -3.044874,0.81909 -4.568719,1.23004 -1.327719,0.12298 -3.983069,0.37145 -3.98307,0.37145 z" />
  </g>
</svg>
