<?xml version="1.0" encoding="UTF-8" standalone="no"?>
<svg
   xmlns:dc="http://purl.org/dc/elements/1.1/"
   xmlns:cc="http://creativecommons.org/ns#"
   xmlns:rdf="http://www.w3.org/1999/02/22-rdf-syntax-ns#"
   xmlns:svg="http://www.w3.org/2000/svg"
   xmlns="http://www.w3.org/2000/svg"
   xmlns:sodipodi="http://sodipodi.sourceforge.net/DTD/sodipodi-0.dtd"
   xmlns:inkscape="http://www.inkscape.org/namespaces/inkscape"
   width="252.99567mm"
   height="34.755756mm"
   viewBox="0 0 252.99567 34.755756"
   version="1.1"
   id="svg881"
   inkscape:version="1.0 (4035a4fb49, 2020-05-01)"
   sodipodi:docname="logoFull.svg">
  <defs
     id="defs875">
    <rect
       id="rect846"
       height="15.831506"
       width="110.00448"
       y="25.685837"
       x="375.51721" />
    <rect
       x="303.3844"
       y="19.380962"
       width="85.709663"
       height="58.182472"
       id="rect1496" />
    <rect
       x="313.81134"
       y="17.295568"
       width="106.14651"
       height="29.821123"
       id="rect1490" />
  </defs>
  <sodipodi:namedview
     id="base"
     pagecolor="#ffffff"
     bordercolor="#666666"
     borderopacity="1.0"
     inkscape:pageopacity="0.0"
     inkscape:pageshadow="2"
     inkscape:zoom="0.8105541"
     inkscape:cx="220.8922"
     inkscape:cy="67.760959"
     inkscape:document-units="mm"
     inkscape:current-layer="layer1"
     inkscape:document-rotation="0"
     showgrid="false"
     inkscape:window-width="1898"
     inkscape:window-height="1024"
     inkscape:window-x="0"
     inkscape:window-y="0"
     inkscape:window-maximized="0" />
  <metadata
     id="metadata878">
    <rdf:RDF>
      <cc:Work
         rdf:about="">
        <dc:format>image/svg+xml</dc:format>
        <dc:type
           rdf:resource="http://purl.org/dc/dcmitype/StillImage" />
        <dc:title />
      </cc:Work>
    </rdf:RDF>
  </metadata>
  <g
     inkscape:label="Layer 1"
     inkscape:groupmode="layer"
     id="layer1"
     transform="translate(-348.58732,-50.983603)">
    <path
       id="path1691"
       style="fill:#424242;fill-opacity:1;stroke-width:2.14836;stroke-linecap:round"
       d="m 381.42626,50.98365 h 206.92022 l 13.23651,34.755663 H 378.24392 Z"
       sodipodi:nodetypes="ccccc" />
    <path
       id="rect833"
       style="fill:#ff6600;fill-opacity:1;stroke-width:0.871869;stroke-linecap:round"
       d="m 348.58732,50.983603 h 48.94684 l -6.2365,34.755757 h -36.47385 z"
       sodipodi:nodetypes="ccccc" />
    <path
       sodipodi:nodetypes="ccccc"
       d="m 352.00254,50.983603 h 42.11639 l -5.3662,34.755757 h -31.38398 z"
       style="fill:#424242;fill-opacity:1;stroke-width:0.871869;stroke-linecap:round"
       id="path1526" />
    <path
       sodipodi:nodetypes="ccccccccccccc"
       id="path859-8"
       style="font-style:normal;font-variant:normal;font-weight:bold;font-stretch:normal;font-size:10.5833px;line-height:1.25;font-family:'Showcard Gothic';-inkscape-font-specification:'Showcard Gothic Bold';white-space:pre;shape-inside:url(#rect852);fill:#ff6600;fill-opacity:1;stroke:none;stroke-width:2.71304"
       d="m 386.26144,60.862815 -6.41317,20.575784 -5.48393,-1.469423 2.54496,-7.712969 -6.62371,5.598507 -3.33074,-8.20774 -1.63797,7.897945 -5.45685,-1.462161 4.51725,-21.083785 7.75966,2.079189 1.61619,7.835436 5.41218,-5.952187 z" />
    <path
       transform="matrix(0.26458333,0,0,0.26458333,348.58732,50.983603)"
       d="m 737.57617,29.962891 c -0.19147,0 -0.46284,0.0168 -0.8125,0.04883 -6.39428,0.954376 -11.78568,3.021886 -16.17578,6.203125 -5.37633,3.849307 -8.06445,8.684182 -8.06445,14.505859 0,4.008368 1.09794,7.666117 3.29297,10.974609 0.31816,0.477186 2.35357,2.880536 6.10742,7.207032 2.16325,2.544995 3.24414,4.850164 3.24414,6.917968 0,3.244869 -1.65442,5.695359 -4.96289,7.34961 -1.49518,0.731681 -4.54927,1.622061 -9.16211,2.671875 -0.4771,0.09548 -0.71485,0.318055 -0.71485,0.667969 10e-6,0.986182 1.25635,3.721472 3.76954,8.207031 2.51316,4.453737 4.13547,6.681641 4.86718,6.681641 0.15945,0 0.36686,-0.0168 0.6211,-0.0488 6.83968,-1.11344 12.64614,-3.705352 17.41797,-7.777342 5.4399,-4.612805 8.1582,-10.149492 8.1582,-16.607422 h 0.002 c 0,-3.467553 -1.13,-6.94985 -3.38867,-10.449219 -0.19084,-0.254501 -2.30551,-2.92759 -6.3457,-8.017578 -2.2905,-2.83131 -3.4375,-5.217648 -3.4375,-7.158203 0,-2.163251 1.03568,-3.847769 3.10351,-5.056641 1.71787,-1.049806 3.72123,-1.576172 6.01172,-1.576172 0.31804,0 0.77829,0.04911 1.38281,0.144531 0.60465,0.09542 1.03483,0.142579 1.28907,0.142579 0.57252,0 0.85937,-0.269735 0.85937,-0.810547 0,-0.127257 -0.049,-0.287625 -0.14453,-0.478516 -3.02221,-6.076178 -4.94638,-10.275346 -5.77344,-12.597656 -0.28646,-0.7635 -0.66745,-1.144531 -1.14453,-1.144531 z M 534.4375,30.822266 c -0.5091,0 -0.95426,0.603628 -1.33594,1.8125 -0.66804,2.099625 -4.89934,13.695463 -12.69336,34.787109 -7.18964,19.501024 -10.78515,29.665058 -10.78515,30.492187 0,0.92256 2.43345,1.384766 7.30078,1.384766 6.17161,0 9.79923,-0.128319 10.88086,-0.382812 0.85883,-0.222693 1.59079,-1.654489 2.19531,-4.294922 0.66837,-2.894945 1.27198,-4.596483 1.8125,-5.105469 0.34991,-0.286319 3.22859,-0.429687 8.63672,-0.429687 8.0166,0 12.27996,0.111319 12.78906,0.333984 0.60447,0.318123 1.44767,2.768613 2.5293,7.349609 0.28631,1.208892 0.97116,1.92382 2.05273,2.146485 1.30437,0.254493 4.23013,0.382812 8.7793,0.382812 4.96275,0 7.92062,-0.128319 8.875,-0.382812 0.79531,-0.222673 1.19336,-0.620718 1.19336,-1.19336 0,-0.858935 -3.78602,-11.134271 -11.35742,-30.826172 -7.53956,-19.564648 -12.08768,-31.017113 -13.64649,-34.357422 -0.50892,-1.049811 -1.0654,-1.574218 -1.66992,-1.574218 -0.82706,0 -2.08343,0.06416 -3.76953,0.191406 -1.65427,0.09542 -2.91257,0.142578 -3.77149,0.142578 -0.8907,0 -2.24134,-0.07921 -4.05468,-0.238281 -1.78152,-0.159068 -3.10203,-0.238281 -3.96094,-0.238281 z m -279.82227,0.572265 c -0.0318,0 -2.11434,0.158415 -6.25,0.476563 -7.69857,0.604467 -12.9806,0.908203 -15.84375,0.908203 -10.08456,0 -17.70383,-0.335847 -22.85742,-1.003906 -0.38158,-0.032 -0.60252,-0.04687 -0.66601,-0.04687 -0.5405,0 -0.9235,1.192192 -1.14649,3.578125 -0.12724,1.495188 -0.23849,2.991147 -0.33398,4.486328 -0.0634,0.47719 -0.34832,1.829773 -0.85742,4.05664 -0.44571,2.035994 -0.66993,3.26026 -0.66993,3.673829 0,0.318145 0.25455,0.476562 0.76368,0.476562 3.78567,0 8.86012,-0.316874 15.22265,-0.953125 0.25424,8.589364 0.38086,14.124098 0.38086,16.605469 0,3.753869 -0.1583,9.384849 -0.47656,16.892578 -0.31829,7.507737 -0.47852,13.138708 -0.47852,16.892578 0,0.827119 0.44716,1.319448 1.33789,1.478516 1.65428,0.254493 4.53294,0.382812 8.63672,0.382812 3.69021,0 6.48968,-0.128319 8.39844,-0.382812 0.79529,-0.09547 1.24044,-0.174685 1.33594,-0.238282 0.28626,-0.15903 0.42969,-0.540063 0.42969,-1.144531 0,-3.753869 -0.16026,-9.401856 -0.47852,-16.941406 -0.28626,-7.539545 -0.42969,-13.185584 -0.42969,-16.939453 0,-3.181246 0.0964,-8.797154 0.28711,-16.845703 8.36669,0.477157 13.15441,0.716797 14.36328,0.716797 0.6999,0 1.04883,-0.318828 1.04883,-0.955079 h 0.002 c 0,-0.763497 -0.11099,-1.908549 -0.33398,-3.435547 -0.19074,-1.55881 -0.28516,-2.735941 -0.28516,-3.53125 0,-0.699872 0.0303,-1.892065 0.0937,-3.578124 0.0635,-1.526998 0.0957,-2.71919 0.0957,-3.578126 -0.032,-0.54082 -0.0959,-0.844555 -0.19141,-0.908203 -0.0954,-0.09542 -0.46136,-0.142578 -1.09766,-0.142578 z m 371.63282,0 c -0.0318,0 -2.11635,0.158415 -6.25196,0.476563 -7.69864,0.604467 -12.97873,0.908203 -15.84179,0.908203 -10.08456,0 -17.70384,-0.335847 -22.85742,-1.003906 -0.38159,-0.032 -0.60448,-0.04687 -0.66797,-0.04687 -0.5405,0 -0.92154,1.192192 -1.14453,3.578125 -0.12725,1.495188 -0.23849,2.991147 -0.33399,4.486328 -0.0634,0.47719 -0.35027,1.829773 -0.85937,4.05664 -0.44508,2.035994 -0.66797,3.26026 -0.66797,3.673829 0,0.318145 0.25457,0.476562 0.76367,0.476562 3.7857,0 8.8602,-0.316874 15.22266,-0.953125 0.25423,8.589364 0.38085,14.124098 0.38085,16.605469 0,3.753869 -0.1583,9.384849 -0.47656,16.892578 -0.31828,7.507737 -0.47656,13.138708 -0.47656,16.892578 0,0.827119 0.4452,1.319448 1.33594,1.478516 1.65427,0.254493 4.53288,0.382812 8.63672,0.382812 3.6902,0 6.48967,-0.128319 8.39843,-0.382812 0.79524,-0.09547 1.24044,-0.174685 1.33594,-0.238282 0.28626,-0.15903 0.42969,-0.540063 0.42969,-1.144531 0,-3.753869 -0.16026,-9.401856 -0.47852,-16.941406 -0.28626,-7.539545 -0.42773,-13.185584 -0.42773,-16.939453 0,-3.181246 0.0944,-8.797154 0.28515,-16.845703 8.36669,0.477157 13.15442,0.716797 14.36329,0.716797 0.69984,0 1.05078,-0.318828 1.05078,-0.955079 0,-0.763497 -0.11125,-1.908549 -0.33399,-3.435547 -0.19074,-1.55881 -0.28711,-2.735941 -0.28711,-3.53125 0,-0.699872 0.0322,-1.892065 0.0957,-3.578124 0.0635,-1.526998 0.0957,-2.71919 0.0957,-3.578126 -0.032,-0.54082 -0.0959,-0.844555 -0.19141,-0.908203 -0.0954,-0.09542 -0.46141,-0.142578 -1.09765,-0.142578 z m 200.80273,0 c -0.0318,0 -2.11634,0.158415 -6.25195,0.476563 -7.69857,0.604467 -12.97866,0.908203 -15.8418,0.908203 -10.08456,0 -17.70386,-0.335847 -22.85742,-1.003906 -0.38221,-0.032 -0.60643,-0.04687 -0.66992,-0.04687 -0.54075,0 -0.92179,1.192192 -1.14453,3.578125 -0.12725,1.495188 -0.23849,2.991147 -0.33399,4.486328 -0.0634,0.47719 -0.35027,1.829773 -0.85937,4.05664 -0.44571,2.035994 -0.66797,3.26026 -0.66797,3.673829 0,0.318145 0.25457,0.476562 0.76367,0.476562 3.7857,0 8.86012,-0.316874 15.22266,-0.953125 0.25423,8.589364 0.38086,14.124098 0.38086,16.605469 0,3.753869 -0.15831,9.384849 -0.47657,16.892578 -0.31828,7.507737 -0.47851,13.138708 -0.47851,16.892578 0,0.827119 0.44515,1.319448 1.33594,1.478516 1.65422,0.254493 4.53288,0.382812 8.63671,0.382812 3.69021,0 6.48968,-0.128319 8.39844,-0.382812 0.79524,-0.09547 1.2424,-0.174685 1.33789,-0.238282 0.28626,-0.15903 0.42774,-0.540063 0.42774,-1.144531 0,-3.753869 -0.1583,-9.401856 -0.47657,-16.941406 -0.28626,-7.539545 -0.42968,-13.185584 -0.42968,-16.939453 0,-3.181246 0.0964,-8.797154 0.28711,-16.845703 8.36669,0.477157 13.15441,0.716797 14.36328,0.716797 0.69989,0 1.04883,-0.318828 1.04882,-0.955079 h 0.002 c 0,-0.763497 -0.11125,-1.908549 -0.33399,-3.435547 -0.19074,-1.55881 -0.28515,-2.735941 -0.28515,-3.53125 0,-0.699872 0.0322,-1.892065 0.0957,-3.578124 0.0635,-1.526998 0.0937,-2.71919 0.0937,-3.578126 -0.032,-0.54082 -0.094,-0.844555 -0.18945,-0.908203 -0.0955,-0.09542 -0.46141,-0.142578 -1.09766,-0.142578 z m -440.82812,0.0957 c -0.79532,0 -2.01956,0.07921 -3.67383,0.238282 -1.62243,0.159067 -2.83164,0.238281 -3.62695,0.238281 -0.95439,0 -2.36916,-0.04716 -4.2461,-0.142578 -1.84511,-0.09542 -3.22981,-0.142578 -4.15234,-0.142578 -0.63595,0 -1.2245,0.618692 -1.76563,1.859375 -6.29886,13.45666 -11.05452,23.526416 -14.26758,30.207031 -1.14552,2.385935 -1.89253,3.578125 -2.24218,3.578125 -0.66807,0 -1.49622,-1.03375 -2.48243,-3.101563 l -13.93359,-30.58789 c -0.63647,-1.336121 -1.12883,-2.003907 -1.47851,-2.003907 -1.7497,0 -4.37564,0.06416 -7.875,0.191407 -3.49937,0.09542 -6.12336,0.142578 -7.87305,0.142578 -1.36685,0 -2.03465,0.318827 -2.00391,0.955078 l 0.0469,0.810547 c 0.25552,5.217235 0.39699,9.146676 0.42773,11.787109 0.31826,10.148168 0.47852,17.067568 0.47852,20.757813 0,3.467555 -0.17574,8.683461 -0.52539,15.65039 -0.31826,6.935108 -0.47657,12.137909 -0.47657,15.605469 0,0.509019 0.0639,0.874992 0.19141,1.097656 0.15907,0.190892 0.55711,0.285157 1.19336,0.285157 h 15.9375 c 0.89078,0 1.33594,-0.556486 1.33594,-1.669922 0,-3.117624 -0.0795,-7.794064 -0.23828,-14.029297 -0.15874,-6.23524 -0.23828,-10.911676 -0.23828,-14.029297 0,-0.636241 0.11124,-1.096493 0.33398,-1.382812 0.22276,0.190845 0.36619,0.364369 0.42969,0.523437 1.49518,3.14943 3.73813,8.255997 6.72851,15.318359 2.7995,6.680615 5.05752,11.770163 6.77539,15.269532 0.31814,0.636245 1.30479,0.955078 2.95899,0.955078 1.1138,0 1.74946,-0.01683 1.9082,-0.04883 0.47703,-0.127252 0.87507,-0.555426 1.19336,-1.28711 2.29049,-5.630803 4.5806,-11.278789 6.87109,-16.941406 3.9132,-9.639148 6.04488,-14.553249 6.39453,-14.744141 0.28627,0.06362 0.42969,0.555956 0.42969,1.478516 0,3.213054 -0.12662,8.032868 -0.38086,14.458984 -0.22299,6.426114 -0.33398,11.245928 -0.33398,14.458985 0,1.113433 0.46025,1.669922 1.38281,1.669922 h 16.89258 c 0.92256,0 1.38476,-0.492329 1.38476,-1.478516 10e-6,-3.435739 -0.14342,-8.621528 -0.42968,-15.556641 -0.28626,-6.935115 -0.42969,-12.135962 -0.42969,-15.603515 0,-3.75387 0.1266,-9.352763 0.38086,-16.796875 0.28626,-7.475923 0.42969,-13.091836 0.42969,-16.845703 0,-0.7635 -0.47726,-1.144532 -1.43164,-1.144532 z m -123.7793,0.476563 c -0.85881,0 -1.25686,0.365965 -1.19336,1.097656 l 0.0469,0.667969 c 0.25418,5.058172 0.42794,8.859301 0.52343,11.404297 0.38168,9.893669 0.57422,16.654627 0.57422,20.28125 0,3.562991 -0.20739,8.922278 -0.62109,16.080078 -0.38168,7.125984 -0.57227,12.470205 -0.57227,16.033203 0,0.92256 0.52442,1.384766 1.57422,1.384766 2.41776,0 6.04536,0.01488 10.88086,0.04687 4.83548,0.032 8.47627,0.04883 10.92578,0.04883 11.22986,0 18.00586,0.158414 20.32813,0.476562 0.66812,0.09542 1.14538,0.144531 1.43164,0.144531 0.66812,10e-7 1.19451,-0.303796 1.57617,-0.908203 0.44553,-0.763497 0.95287,-3.13282 1.52539,-7.109375 0.5405,-3.658431 0.8125,-6.171128 0.8125,-7.539062 l 0.004,-0.002 c 0,-1.14525 -0.34894,-1.716797 -1.04883,-1.716797 -1.65428,0 -4.15189,0.158414 -7.49219,0.476562 -3.30847,0.28632 -5.80609,0.429688 -7.49219,0.429688 h -6.96679 c -3.53089,-0.222685 -5.5663,-0.939563 -6.10743,-2.148438 -0.31826,-0.699875 -0.47851,-2.25804 -0.47851,-4.675781 0,-1.813304 0.0161,-2.799917 0.0469,-2.958984 0.22267,-0.636253 0.98673,-0.953125 2.29102,-0.953125 h 5.05664 c 6.45793,0 10.59491,0.09427 12.4082,0.285156 l 4.29492,0.478516 c 0.92256,0 1.38282,-0.318833 1.38282,-0.955078 0,-2.544996 0.12662,-5.089766 0.38086,-7.634766 0.49864,-4.821053 0.7794,-7.285024 0.84375,-7.400391 -0.0376,-0.657735 -0.40503,-0.998047 -1.12891,-0.998047 -0.6363,0 -1.4965,0.06416 -2.57812,0.191407 -1.40002,0.127067 -2.2734,0.206281 -2.62305,0.238281 -4.10379,0.222664 -8.16156,0.333984 -12.16992,0.333984 -0.60448,0 -1.36651,0.03211 -2.28907,0.0957 -0.92235,0.032 -1.54304,0.04687 -1.86132,0.04687 -1.52671,0 -2.56044,-0.301782 -3.10157,-0.90625 -0.63622,-0.699875 -0.95507,-2.131679 -0.95507,-4.294922 0,-2.067822 0.0795,-3.292088 0.23828,-3.673828 0.38175,-0.795308 1.41554,-1.193359 3.10156,-1.193359 6.74426,0 14.34844,0.348953 22.81055,1.048828 0.47732,0.03202 0.81121,0.04883 1.00195,0.04883 0.63622,0 0.95312,-0.333894 0.95312,-1.001953 0,-0.795313 -0.17378,-3.038276 -0.52343,-6.728516 -0.31837,-3.722058 -0.55806,-5.948003 -0.7168,-6.679687 -0.25449,-1.24069 -1.20901,-1.861328 -2.86328,-1.861328 -2.32227,0 -5.82161,0.06221 -10.49805,0.189453 -4.67641,0.127244 -8.17573,0.191406 -10.49805,0.191406 -2.35416,0 -5.90061,-0.06416 -10.64062,-0.191406 -4.70826,-0.127244 -8.23961,-0.189453 -10.59375,-0.189453 z m 44.93555,25.333984 c 0.002,0.03599 0.0156,0.06165 0.0156,0.09961 0,-0.08621 -0.006,-0.116703 -0.0156,-0.09961 z M 414.04492,31.966797 c -8.46206,0 -13.9346,0.158414 -16.41601,0.476562 -1.01788,0.127217 -1.49514,0.493189 -1.43164,1.097657 l 0.0469,0.667968 c 0.85896,11.007106 1.28906,21.505034 1.28906,31.494141 0,3.531177 -0.0639,8.845277 -0.1914,15.939453 -0.0955,7.062362 -0.14258,12.359443 -0.14258,15.890625 0,0.92256 0.46025,1.382813 1.38281,1.382813 1.94059,0 4.85133,0.04716 8.73242,0.142578 3.88112,0.127244 6.79189,0.191406 8.73243,0.191406 0.66804,0 1.00195,-0.365972 1.00195,-1.097656 0,-1.431559 -0.14345,-3.595303 -0.42969,-6.490235 -0.28626,-2.894939 -0.42773,-5.073744 -0.42773,-6.537109 0,-1.177066 0.68284,-1.765625 2.05078,-1.765625 1.27246,0 3.18155,0.07921 5.72656,0.238281 2.57681,0.127244 4.50097,0.191406 5.77344,0.191406 7.60322,0 13.56808,-2.529711 17.89453,-7.58789 4.04019,-4.771865 6.06055,-11.00647 6.06055,-18.705078 h 0.002 c 0,-7.507737 -2.35424,-13.583895 -7.0625,-18.228516 -4.61276,-4.517387 -10.68894,-6.88671 -18.22852,-7.109375 -4.58099,-0.127244 -9.36871,-0.191406 -14.36328,-0.191406 z m 220.03125,0 c -0.85881,0 -1.25685,0.365965 -1.19336,1.097656 l 0.0469,0.667969 c 0.25418,5.058172 0.42794,8.859301 0.52343,11.404297 0.38169,9.893669 0.57422,16.654627 0.57422,20.28125 0,3.562991 -0.20738,8.922278 -0.62109,16.080078 -0.38166,7.125984 -0.57227,12.470205 -0.57227,16.033203 0,0.92256 0.52437,1.384766 1.57422,1.384766 2.41774,0 6.04536,0.01488 10.88086,0.04687 4.83543,0.032 8.4762,0.04883 10.92578,0.04883 11.22979,0 18.00581,0.158414 20.32813,0.476562 0.66812,0.09542 1.14538,0.144531 1.43164,0.144531 0.66812,1e-6 1.19449,-0.303796 1.57617,-0.908203 0.44551,-0.763497 0.95287,-3.13282 1.52539,-7.109375 0.54052,-3.658431 0.8125,-6.171128 0.8125,-7.539062 l 0.004,-0.002 c 0,-1.14525 -0.34901,-1.716797 -1.04883,-1.716797 -1.65427,0 -4.15189,0.158414 -7.49219,0.476562 -3.30847,0.28632 -5.80609,0.429688 -7.49218,0.429688 h -6.9668 c -3.53091,-0.222685 -5.56632,-0.939563 -6.10742,-2.148438 -0.31829,-0.699875 -0.47852,-2.25804 -0.47852,-4.675781 0,-1.813304 0.0161,-2.799917 0.0469,-2.958984 0.22271,-0.636253 0.98477,-0.953125 2.28906,-0.953125 h 5.05859 c 6.45793,0 10.59491,0.09427 12.40821,0.285156 l 4.29296,0.478516 c 0.92254,0 1.38477,-0.318833 1.38477,-0.955078 0,-2.544996 0.1266,-5.089766 0.38086,-7.634766 0.49864,-4.821077 0.7794,-7.285047 0.84375,-7.400391 -0.0376,-0.657735 -0.40498,-0.998047 -1.12891,-0.998047 -0.63624,0 -1.4965,0.06416 -2.57812,0.191407 -1.40002,0.127067 -2.27532,0.206281 -2.625,0.238281 -4.10379,0.222664 -8.15963,0.333984 -12.16797,0.333984 -0.60447,0 -1.36651,0.03211 -2.28906,0.0957 -0.92244,0.032 -1.54307,0.04687 -1.86133,0.04687 -1.52665,0 -2.56044,-0.301782 -3.10156,-0.90625 -0.63625,-0.699875 -0.95508,-2.131679 -0.95508,-4.294922 0,-2.067822 0.0795,-3.292088 0.23828,-3.673828 0.38181,-0.795308 1.41554,-1.193359 3.10156,-1.193359 6.74427,0 14.34844,0.348953 22.81055,1.048828 0.47733,0.03202 0.81121,0.04883 1.00195,0.04883 0.63622,0 0.95313,-0.333894 0.95313,-1.001953 0,-0.795313 -0.17378,-3.038276 -0.52344,-6.728516 -0.31836,-3.722058 -0.55806,-5.948003 -0.7168,-6.679687 -0.25449,-1.24069 -1.20901,-1.861328 -2.86328,-1.861328 -2.32227,0 -5.82156,0.06221 -10.49805,0.189453 -4.67641,0.127244 -8.17578,0.191406 -10.49804,0.191406 -2.35417,0 -5.90062,-0.06416 -10.64063,-0.191406 -4.70826,-0.127244 -8.23961,-0.189453 -10.59375,-0.189453 z m 44.93555,25.333984 c 0.002,0.03599 0.0156,0.06165 0.0156,0.09961 0,-0.08621 -0.006,-0.116699 -0.0156,-0.09961 z m 75.5039,-25.333984 c -0.73164,0 -1.09765,0.350906 -1.09765,1.050781 0,3.403931 0.11124,8.508545 0.33398,15.316406 0.22274,6.807867 0.33399,11.914429 0.33399,15.31836 0,4.040176 -0.28688,12.502677 -0.85938,25.386718 -0.28626,6.107974 -0.42968,8.907424 -0.42968,8.398438 0,0.795298 0.4622,1.287624 1.38476,1.478516 1.27247,0.254493 4.23036,0.382812 8.875,0.382812 3.46757,0 6.23496,-0.128319 8.30274,-0.382812 0.76361,-0.09524 1.17869,-0.159407 1.24218,-0.191407 0.28626,-0.159062 0.42774,-0.55516 0.42774,-1.191406 0,-3.753867 -0.0944,-9.401853 -0.28516,-16.941406 -0.19074,-7.539545 -0.28711,-13.185586 -0.28711,-16.939453 0,-3.403931 0.17571,-8.510493 0.52539,-15.31836 0.38166,-6.807861 0.57227,-11.912475 0.57227,-15.316406 0,-0.699875 -0.46224,-1.050781 -1.38477,-1.050781 -0.98615,0 -2.44808,0.04716 -4.38867,0.142578 -1.90876,0.09542 -3.3576,0.144531 -4.34375,0.144531 -0.9862,0 -2.48019,-0.04911 -4.48438,-0.144531 -1.97235,-0.09542 -3.45129,-0.142578 -4.4375,-0.142578 z m 80.35938,0 c -0.85881,0 -1.2549,0.365965 -1.19141,1.097656 l 0.0449,0.667969 c 0.25418,5.058172 0.42989,8.859301 0.52539,11.404297 0.38168,9.893669 0.57226,16.654627 0.57226,20.28125 0,3.562991 -0.20738,8.922278 -0.62109,16.080078 -0.38166,7.125984 -0.57227,12.470205 -0.57227,16.033203 0,0.92256 0.52437,1.384766 1.57422,1.384766 2.41769,0 6.04536,0.01488 10.88086,0.04687 4.83548,0.032 8.47815,0.04883 10.92773,0.04883 11.22979,0 18.00581,0.158414 20.32813,0.476562 0.66812,0.09542 1.14538,0.144531 1.43164,0.144531 0.66812,1e-6 1.19254,-0.303796 1.57422,-0.908203 0.44545,-0.763497 0.95482,-3.13282 1.52734,-7.109375 0.54113,-3.658431 0.81055,-6.171128 0.81055,-7.539062 l 0.004,-0.002 c 0,-1.14525 -0.34901,-1.716797 -1.04883,-1.716797 -1.65428,0 -4.15189,0.158414 -7.49219,0.476562 -3.30847,0.28632 -5.80609,0.429688 -7.49219,0.429688 h -6.96679 c -3.53091,-0.222685 -5.56632,-0.939563 -6.10743,-2.148438 -0.31828,-0.699875 -0.47851,-2.25804 -0.47851,-4.675781 0,-1.813304 0.0161,-2.799917 0.0469,-2.958984 0.22272,-0.636253 0.98673,-0.953125 2.29102,-0.953125 h 5.05859 c 6.45793,0 10.59296,0.09427 12.40625,0.285156 l 4.29492,0.478516 c 0.92254,0 1.38282,-0.318833 1.38282,-0.955078 0,-2.544996 0.1266,-5.089766 0.38086,-7.634766 0.49864,-4.821053 0.7794,-7.285024 0.84375,-7.400391 -0.0376,-0.657695 -0.405,-0.998047 -1.12891,-0.998047 -0.63625,0 -1.4965,0.06416 -2.57812,0.191407 -1.40002,0.127067 -2.27337,0.206281 -2.62305,0.238281 -4.10379,0.222664 -8.15963,0.333984 -12.16797,0.333984 -0.60447,0 -1.36846,0.03211 -2.29102,0.0957 -0.92243,0.032 -1.54306,0.04687 -1.86132,0.04687 -1.52666,0 -2.56044,-0.301782 -3.10157,-0.90625 -0.63624,-0.699875 -0.95507,-2.131679 -0.95507,-4.294922 0,-2.067822 0.0795,-3.292088 0.23828,-3.673828 0.38173,-0.795308 1.41546,-1.193359 3.10156,-1.193359 6.74426,0 14.34849,0.348953 22.81055,1.048828 0.4773,0.03202 0.81121,0.04883 1.00195,0.04883 0.6363,0 0.95312,-0.333894 0.95312,-1.001953 0,-0.795313 -0.17378,-3.038276 -0.52343,-6.728516 -0.31837,-3.722058 -0.55611,-5.948003 -0.71485,-6.679687 -0.25449,-1.24069 -1.209,-1.861328 -2.86328,-1.861328 -2.32232,0 -5.82161,0.06221 -10.49804,0.189453 -4.67641,0.127244 -8.17578,0.191406 -10.49805,0.191406 -2.35417,0 -5.9025,-0.06416 -10.64258,-0.191406 -4.70818,-0.127244 -8.23961,-0.189453 -10.59375,-0.189453 z m 44.93555,25.333984 c 0.002,0.03601 0.0156,0.06163 0.0156,0.09961 0,-0.08621 -0.006,-0.116703 -0.0156,-0.09961 z M 479.89453,32.013672 c -1.0498,0 -2.60792,0.06416 -4.67578,0.191406 -2.06775,0.09542 -3.6259,0.144531 -4.67578,0.144531 -0.92256,0 -2.33936,-0.04911 -4.24805,-0.144531 -1.87694,-0.09542 -3.29171,-0.142578 -4.24609,-0.142578 -0.95438,0 -1.43164,0.34896 -1.43164,1.048828 0,3.690245 0.11124,9.226932 0.33398,16.607422 0.22274,7.348669 0.33399,12.868349 0.33399,16.558594 0,3.467555 -0.0639,8.668402 -0.19141,15.603515 -0.0955,6.903302 -0.14258,12.089088 -0.14258,15.556641 0,0.827122 0.46026,1.319448 1.38281,1.478516 2.67226,0.159244 4.72464,0.223406 6.15625,0.191406 l 14.26758,0.191406 c 1.39971,0.03182 4.96317,0.111037 10.68946,0.238281 4.39009,0.127244 7.95363,0.189453 10.68945,0.189453 1.14562,10e-7 1.79829,-0.0301 1.95703,-0.09375 0.5093,-0.15906 0.84321,-0.653346 1.00195,-1.480468 0.79532,-3.944746 1.19336,-8.636248 1.19336,-14.076172 0,-0.731691 -0.4301,-1.097656 -1.28906,-1.097656 -2.86307,0 -7.15848,0.158414 -12.88477,0.476562 -5.69441,0.286319 -9.97279,0.429688 -12.83593,0.429688 h -1.24024 c -0.44636,-0.09542 -0.6841,-0.333104 -0.71484,-0.714844 -0.0328,-0.38176 -0.065,-0.764745 -0.0957,-1.146484 -0.0307,-1.876934 -0.0469,-4.851836 -0.0469,-8.923829 l 0.0469,-12.597656 c 0.47727,-11.99329 0.90738,-20.980198 1.28906,-26.960937 l 0.0449,-0.619141 c 0.032,-0.60447 -0.19089,-0.908203 -0.66797,-0.908203 z m -56.06836,15.126953 c 7.22142,0 10.83203,3.706842 10.83203,11.119141 0,6.966924 -3.45213,10.451172 -10.35547,10.451172 -5.72621,0 -8.58984,-0.318833 -8.58984,-0.955079 0,-0.986189 -0.0471,-2.433047 -0.14258,-4.341797 -0.0635,-1.940555 -0.0957,-3.40444 -0.0957,-4.390624 0,-6.935109 0.11124,-10.609872 0.33398,-11.023438 0.25452,-0.572641 2.92759,-0.859375 8.01758,-0.859375 z m 119.00977,7.111328 c 0.66807,1.272497 1.7169,4.198308 3.14844,8.779297 1.46338,4.740059 2.19531,7.635735 2.19531,8.685547 0,0.286327 -0.0322,0.508901 -0.0957,0.667969 -0.22266,0.508986 -1.38276,0.763672 -3.48242,0.763672 -2.25867,0 -3.88096,-0.03211 -4.86718,-0.0957 -1.90869,-0.06361 -2.86329,-0.382439 -2.86329,-0.955078 0,-0.858938 0.8583,-3.76968 2.57618,-8.732422 1.5906,-4.676427 2.7206,-7.71353 3.38867,-9.113281 z"
       style="font-style:normal;font-variant:normal;font-weight:bold;font-stretch:normal;font-size:10.5833px;line-height:1.25;font-family:'Berlin Sans FB Demi';-inkscape-font-specification:'Berlin Sans FB Demi Bold';white-space:pre;fill:#ffffff;fill-opacity:1;stroke:none;stroke-width:9.23414"
       id="path850" />
  </g>
</svg>
