<?xml version="1.0" encoding="UTF-8" standalone="no"?>
<svg
   xmlns:dc="http://purl.org/dc/elements/1.1/"
   xmlns:cc="http://creativecommons.org/ns#"
   xmlns:rdf="http://www.w3.org/1999/02/22-rdf-syntax-ns#"
   xmlns:svg="http://www.w3.org/2000/svg"
   xmlns="http://www.w3.org/2000/svg"
   xmlns:sodipodi="http://sodipodi.sourceforge.net/DTD/sodipodi-0.dtd"
   xmlns:inkscape="http://www.inkscape.org/namespaces/inkscape"
   sodipodi:docname="logoFull.svg"
   inkscape:version="1.0 (4035a4fb49, 2020-05-01)"
   id="svg881"
   version="1.1"
   viewBox="0 0 184.73317 34.755756"
   height="34.755756mm"
   width="184.73317mm">
  <defs
     id="defs875">
    <rect
       id="rect1496"
       height="58.182472"
       width="85.709663"
       y="19.380962"
       x="303.3844" />
    <rect
       id="rect1490"
       height="29.821123"
       width="106.14651"
       y="17.295568"
       x="313.81134" />
  </defs>
  <sodipodi:namedview
     inkscape:window-maximized="0"
     inkscape:window-y="0"
     inkscape:window-x="0"
     inkscape:window-height="1080"
     inkscape:window-width="1920"
     showgrid="false"
     inkscape:document-rotation="0"
     inkscape:current-layer="layer1"
     inkscape:document-units="mm"
     inkscape:cy="68.931369"
     inkscape:cx="334.88316"
     inkscape:zoom="1.6211082"
     inkscape:pageshadow="2"
     inkscape:pageopacity="0.0"
     borderopacity="1.0"
     bordercolor="#666666"
     pagecolor="#ffffff"
     id="base" />
  <metadata
     id="metadata878">
    <rdf:RDF>
      <cc:Work
         rdf:about="">
        <dc:format>image/svg+xml</dc:format>
        <dc:type
           rdf:resource="http://purl.org/dc/dcmitype/StillImage" />
        <dc:title></dc:title>
      </cc:Work>
    </rdf:RDF>
  </metadata>
  <g
     transform="translate(-348.58732,-50.983603)"
     id="layer1"
     inkscape:groupmode="layer"
     inkscape:label="Layer 1">
    <path
       sodipodi:nodetypes="ccccc"
       d="m 381.42626,50.983648 h 138.65772 l 13.23651,34.755663 H 378.24392 Z"
       style="fill:#424242;fill-opacity:1;stroke-width:2.14836;stroke-linecap:round"
       id="path1691" />
    <g
       transform="matrix(1.1292446,0,0,1.1292446,-33.600449,-8.9092478)"
       id="g1732">
      <g
         style="fill:#dfdfdf;fill-opacity:1"
         transform="matrix(0.5423097,0,0,0.5423097,360.11459,-18.786923)"
         id="g1697">
        <g
           transform="matrix(4.9165495,0,0,4.9165495,-137.17267,-777.31416)"
           style="font-style:normal;font-weight:normal;font-size:10.5833px;line-height:1.25;font-family:sans-serif;white-space:pre;shape-inside:url(#rect852);fill:#dfdfdf;fill-opacity:1;stroke:none"
           id="g1695"
           aria-label="M">
          <path
             sodipodi:nodetypes="ccccccccccccc"
             id="path1693"
             style="font-style:normal;font-variant:normal;font-weight:bold;font-stretch:normal;font-family:'Showcard Gothic';-inkscape-font-specification:'Showcard Gothic Bold';fill:#dfdfdf;fill-opacity:1"
             d="m 46.359633,187.03316 -0.320393,7.93747 h -2.092644 l 0.170283,-2.98886 -1.824173,2.62515 -1.968866,-2.60448 0.170283,2.96819 h -2.082308 l -0.403075,-7.93747 h 2.96105 l 1.322912,2.63549 1.359086,-2.63549 z" />
        </g>
      </g>
      <path
         id="path1699"
         style="font-style:normal;font-variant:normal;font-weight:normal;font-stretch:normal;font-size:10.5833px;line-height:1.25;font-family:'Berlin Sans FB Demi';-inkscape-font-specification:'Berlin Sans FB Demi';white-space:pre;fill:#dfdfdf;fill-opacity:1;stroke:none;stroke-width:2.85802"
         d="m 429.57723,71.969976 c 0,2.51075 -0.30034,4.223963 -0.90095,5.139669 -1.10277,1.673824 -3.85476,2.51075 -8.25596,2.51075 -1.98892,0 -3.51999,-0.152661 -4.5932,-0.457839 -1.71324,-0.492329 -2.82584,-1.432615 -3.33785,-2.820912 -0.4303,-5.680214 -0.60939,-11.985541 -0.62007,-17.959829 0,-0.236395 0.10339,0 0.31017,0 0.60058,0 1.50643,-0.04927 2.71749,0 1.22091,0.04927 2.13172,0 2.73234,0 0.24608,0 0.36923,-0.216458 0.36923,0 -0.0199,4.119066 -0.24608,8.054826 -0.25092,12.273719 0,1.545825 0.16234,2.589498 0.48737,3.131043 0.43323,0.738466 1.33908,1.107699 2.71753,1.107699 2.01847,0 3.02768,-0.979703 3.02768,-2.939081 -0.009,-4.529025 -0.2025,-8.932193 -0.20706,-13.57338 0,-0.305235 0.12333,0 0.36924,0 0.58093,0 1.45722,0.04927 2.62892,0 1.17166,-0.04927 2.04798,0 2.62889,0 0.28552,0 0.42833,-0.236395 0.42833,0 0,1.132307 -0.0493,3.313726 -0.14782,5.59802 -0.0886,2.284294 -0.13301,3.997536 -0.13301,5.139697 0,0.315061 0.006,0.792581 0.0142,1.432586 0.009,0.630151 0.0142,1.102769 0.0142,1.417858 z"
         sodipodi:nodetypes="ccscccscscccsccsssscsccc" />
      <path
         id="path1701"
         style="font-style:normal;font-variant:normal;font-weight:normal;font-stretch:normal;font-size:10.5833px;line-height:1.25;font-family:'Berlin Sans FB Demi';-inkscape-font-specification:'Berlin Sans FB Demi';white-space:pre;fill:#dfdfdf;fill-opacity:1;stroke:none;stroke-width:2.85802"
         d="m 452.26264,58.381815 -0.28054,10.708153 v 9.73289 l -0.42833,0.302758 h -1.07814 -1.06338 -1.15202 -1.15196 l -0.63507,-0.450434 -7.88673,-10.397475 -0.22159,-0.177154 -0.11791,0.324916 0.19196,10.279334 -0.39876,0.420898 h -5.11014 l -0.4283,-0.361828 0.0296,-20.381972 h 0.57601 2.11198 1.16674 1.16677 0.54647 l 7.73903,10.855857 0.63507,0.457839 0.19197,-1.151987 -0.33953,-10.161709 h 0.31014 2.67323 2.67324 0.28054 z"
         sodipodi:nodetypes="ccccccccccccccccccccccccccccccc" />
      <path
         id="path1703"
         style="font-style:normal;font-variant:normal;font-weight:normal;font-stretch:normal;font-size:10.5833px;line-height:1.25;font-family:'Berlin Sans FB Demi';-inkscape-font-specification:'Berlin Sans FB Demi';white-space:pre;fill:#dfdfdf;fill-opacity:1;stroke:none;stroke-width:2.85802"
         d="m 471.94995,63.861694 -0.23639,1.107699 -5.27262,8.049183 -0.47259,1.122452 0.0886,2.348292 0.0886,2.333538 -0.11791,0.302758 h -0.39877 -2.65845 -2.73228 l -0.41352,-0.332293 0.133,-2.377827 0.13301,-2.40739 -0.35445,-1.019065 -5.11013,-7.739049 -0.33967,-0.945213 -0.0886,-2.658454 -0.0886,-3.26451 h 0.29541 2.73228 2.74709 0.33967 l -0.0738,2.762355 -0.0592,2.259686 1.29969,2.215369 1.69846,2.141545 1.60983,-2.126792 1.27018,-2.141517 -0.11791,-2.230151 -0.10339,-2.880495 h 0.13301 0.36923 2.65846 2.68796 0.29541 l 0.0293,3.116806 0.0293,2.363045 z"
         sodipodi:nodetypes="cccccccccccccccccccccccccccccccccccccc" />
      <path
         id="path1705"
         style="font-style:normal;font-variant:normal;font-weight:normal;font-stretch:normal;font-size:10.5833px;line-height:1.25;font-family:'Berlin Sans FB Demi';-inkscape-font-specification:'Berlin Sans FB Demi';white-space:pre;fill:#dfdfdf;fill-opacity:1;stroke:none;stroke-width:2.85802"
         d="m 493.27663,78.852394 -0.36923,0.273136 h -2.74709 -2.7175 l -0.63508,-0.568631 -0.78275,-2.274439 -3.95818,-0.103388 -2.6732,0.133008 -0.56123,1.580291 -0.67939,1.233216 h -3.36736 -2.25969 l 3.33785,-9.651632 3.92859,-11.092168 h 0.41355 1.22581 1.2554 1.16674 1.1668 0.51691 l 4.22399,10.929738 z m -10.47136,-13.454698 -1.0486,2.820912 -0.79754,2.702743 0.88617,0.295381 1.50644,0.02962 1.07814,-0.236395 0.0296,-0.206775 -0.6794,-2.68799 -0.97477,-2.717524 z"
         sodipodi:nodetypes="ccccccccccccccccccccccccccccccccc" />
    </g>
    <path
       sodipodi:nodetypes="ccccc"
       d="m 348.58732,50.983603 h 48.94684 l -6.2365,34.755757 h -36.47385 z"
       style="fill:#ff6600;fill-opacity:1;stroke-width:0.871869;stroke-linecap:round"
       id="rect833" />
    <path
       id="path1526"
       style="fill:#424242;fill-opacity:1;stroke-width:0.871869;stroke-linecap:round"
       d="m 352.00254,50.983603 h 42.11639 l -5.3662,34.755757 h -31.38398 z"
       sodipodi:nodetypes="ccccc" />
    <path
       d="m 386.26144,60.862815 -6.41317,20.575784 -5.48393,-1.469423 2.54496,-7.712969 -6.62371,5.598507 -3.33074,-8.20774 -1.63797,7.897945 -5.45685,-1.462161 4.51725,-21.083785 7.75966,2.079189 1.61619,7.835436 5.41218,-5.952187 z"
       style="font-style:normal;font-variant:normal;font-weight:bold;font-stretch:normal;font-size:10.5833px;line-height:1.25;font-family:'Showcard Gothic';-inkscape-font-specification:'Showcard Gothic Bold';white-space:pre;shape-inside:url(#rect852);fill:#ff6600;fill-opacity:1;stroke:none;stroke-width:2.71304"
       id="path859-8"
       sodipodi:nodetypes="ccccccccccccc" />
  </g>
</svg>
