<?xml version="1.0" encoding="UTF-8" standalone="no"?>
<svg
   xmlns:dc="http://purl.org/dc/elements/1.1/"
   xmlns:cc="http://creativecommons.org/ns#"
   xmlns:rdf="http://www.w3.org/1999/02/22-rdf-syntax-ns#"
   xmlns:svg="http://www.w3.org/2000/svg"
   xmlns="http://www.w3.org/2000/svg"
   xmlns:sodipodi="http://sodipodi.sourceforge.net/DTD/sodipodi-0.dtd"
   xmlns:inkscape="http://www.inkscape.org/namespaces/inkscape"
   width="135.46666mm"
   height="119.02648mm"
   viewBox="0 0 135.46666 119.02648"
   version="1.1"
   id="svg8"
   inkscape:version="1.0 (4035a4fb49, 2020-05-01)"
   sodipodi:docname="cart_theme_color.svg">
  <defs
     id="defs2" />
  <sodipodi:namedview
     id="base"
     pagecolor="#ffffff"
     bordercolor="#666666"
     borderopacity="1.0"
     inkscape:pageopacity="0.0"
     inkscape:pageshadow="2"
     inkscape:zoom="0.7"
     inkscape:cx="355.70744"
     inkscape:cy="365.53498"
     inkscape:document-units="mm"
     inkscape:current-layer="layer1"
     inkscape:document-rotation="0"
     showgrid="false"
     inkscape:window-width="1920"
     inkscape:window-height="974"
     inkscape:window-x="-11"
     inkscape:window-y="-11"
     inkscape:window-maximized="1" />
  <metadata
     id="metadata5">
    <rdf:RDF>
      <cc:Work
         rdf:about="">
        <dc:format>image/svg+xml</dc:format>
        <dc:type
           rdf:resource="http://purl.org/dc/dcmitype/StillImage" />
        <dc:title />
      </cc:Work>
    </rdf:RDF>
  </metadata>
  <g
     inkscape:label="Layer 1"
     inkscape:groupmode="layer"
     id="layer1"
     transform="translate(-54.163996,-31.938991)">
    <path
       style="fill:#474747;stroke-width:0.244631;fill-opacity:1"
       d="m 111.93217,146.13375 c -3.10475,-0.83615 -5.58891,-2.77115 -6.99653,-5.44987 -3.35779,-6.38986 -0.0415,-13.9204 6.95929,-15.80316 1.27104,-0.34182 1.13899,-0.35502 -3.7067,-0.37055 -5.48167,-0.0176 -6.94823,-0.24583 -9.098502,-1.41615 -1.835431,-0.99897 -3.468534,-2.76596 -4.516936,-4.88727 -0.915251,-1.85189 -0.93035,-1.92837 -0.93035,-4.71184 v -2.82939 l 1.168673,-2.41731 1.168672,-2.41732 -8.864866,-31.032533 -8.864875,-31.032533 h -7.944113 c -7.444253,0 -8.007707,-0.03079 -8.954838,-0.489284 -1.162949,-0.562972 -2.07932,-1.964507 -2.07932,-3.180182 0,-1.125747 0.883252,-2.547305 1.958041,-3.151365 0.895854,-0.503501 1.195144,-0.518101 10.620468,-0.518101 7.637899,0 9.868324,0.0709 10.497248,0.333683 1.564258,0.653588 1.917609,1.399475 3.823845,8.071726 l 1.792012,6.272454 H 134.7851 c 46.44325,0 46.8295,0.004 47.78718,0.492555 1.04071,0.530929 1.9506,1.952528 1.9506,3.04759 0,0.950132 -14.59314,51.95836 -15.21698,53.18875 -0.39429,0.77766 -0.81838,1.19941 -1.53199,1.52357 -0.94057,0.42725 -2.50263,0.4485 -33.35277,0.45362 l -32.366,0.006 -0.6314,1.37916 c -1.03603,2.26297 -0.70329,4.06617 0.98214,5.32262 l 0.69061,0.51483 32.08995,0.12232 c 31.42622,0.11978 32.1065,0.13233 32.8902,0.60624 0.85142,0.51485 1.76838,2.10323 1.76838,3.06323 0,1.16629 -0.94956,2.63326 -2.04899,3.1655 -0.97278,0.47091 -1.49726,0.50532 -7.99696,0.52477 -6.00121,0.0179 -6.78803,0.0617 -5.73275,0.31864 5.5139,1.34264 9.19103,6.86866 8.2443,12.38959 -0.80355,4.68587 -4.39549,8.28687 -9.06472,9.08756 -4.49505,0.77081 -9.24399,-1.57915 -11.37098,-5.6268 -3.35777,-6.38986 -0.0415,-13.92039 6.95931,-15.80315 1.1846,-0.31858 -0.41508,-0.35397 -15.80619,-0.34975 -13.96969,0.004 -16.89885,0.0596 -15.90101,0.30255 3.01955,0.73527 5.62034,2.75904 7.05551,5.49016 1.77502,3.37787 1.77797,6.97408 0.008,10.34142 -2.31266,4.40099 -7.54921,6.73701 -12.25885,5.46865 z"
       id="path847" />
  </g>
</svg>
